# xmcd
#
# Track frame offsets:
#   150
#   11845
#   28776
#   47258
#   54902
#   68188
#   90605
#   101038
#   112931
#   130943
#   151044
#   166269
#   180020
#   192159
#   208755
#   220879
#   230153
#   239889
#   251015
#   266126
#   276877
#   288728
#   296150
#   306205
#   318669
#
# Disc length: 4328 seconds
#
# Revision: 0
# Processed by: cddbd v1.5.2PL0 Copyright (c) Steve Scherf et al.
# Submitted via: GXTranscoder 2.0.1939
#
DISCID=7610e619
DTITLE=BJU 2006 - BJU 2006
DYEAR=2006
DGENRE=Religios
TTITLE0=1
TTITLE1=2
TTITLE2=3
TTITLE3=4
TTITLE4=5
TTITLE5=6
TTITLE6=7
TTITLE7=8
TTITLE8=9
TTITLE9=10
TTITLE10=11
TTITLE11=12
TTITLE12=13
TTITLE13=14
TTITLE14=15
TTITLE15=16
TTITLE16=17
TTITLE17=18
TTITLE18=19
TTITLE19=20
TTITLE20=21
TTITLE21=22
TTITLE22=23
TTITLE23=24
TTITLE24=25
EXTD=
EXTT0=
EXTT1=
EXTT2=
EXTT3=
EXTT4=
EXTT5=
EXTT6=
EXTT7=
EXTT8=
EXTT9=
EXTT10=
EXTT11=
EXTT12=
EXTT13=
EXTT14=
EXTT15=
EXTT16=
EXTT17=
EXTT18=
EXTT19=
EXTT20=
EXTT21=
EXTT22=
EXTT23=
EXTT24=
PLAYORDER=
